<svg xmlns="http://www.w3.org/2000/svg" viewBox="0 0 291.9 246.1"><title>bookreader</title><g id="b634aaee-41ba-4d15-b2e8-c7fef279f7be" data-name="Layer 2"><g id="0e954325-be3f-4cdb-bb5a-9e4ce86ff307" data-name="Layer 1"><path d="M139.1,184.4c-23-16.7-51.5-15.7-77.7-15.5-12.1.1-13.1-1-13.1-13.1V0S139.1,5.8,139,30.6c.1,30.8,0,148.6,0,148.6S139.2,184.5,139.1,184.4Z" style="fill:#fff"/><path d="M153.4,183.9V169.2c0-45.2-.1-124.9-.1-138.5,0-22.7,89.9-29.6,89.9-29.6V12.6q-.3,73.05,0,146.2c0,7.5-3,10.4-10.3,10.2-10.7-.3-21.4.4-32-.2-14.8-.7-28,3.6-40.4,11.3C158.8,181.2,156.9,182.1,153.4,183.9Z" style="fill:#fff"/><path d="M25,196.4c23.4,0,46.1.2,68.7-.1,30.1-.4,52.2,19.6,52.2,19.6s25.8-19.2,54.8-19.6c21.6-.3,43.2.1,66.1.1V186.3c0-42.2.2-143.3.2-143.3l24.9-8.6V195.3c0,18.1-8,26.1-25.9,26.2-20.5,0-41.1-1-61.6-.2-36.5,1.3-58.4,24.8-58.4,24.8S123.6,222,94.1,221.5c-22.7-.5-45.5.2-68.2.1C8.1,221.6.1,213.8.1,196.3,0,149.4,0,34.3,0,34.3l24.3,8.6s.2,99.7.3,143C24.6,189.1,24.9,192.3,25,196.4Z" style="fill:#fff"/></g></g></svg>